HIERARCHY
ROOT root
{
	OFFSET	0	13.1	24.9
	CHANNELS 6  Xposition Yposition Zposition Xrotation Yrotation Zrotation
	JOINT spine_1
	{
		OFFSET	0	9.99999	0
		CHANNELS 3  Xrotation Yrotation Zrotation
		JOINT spine_2
		{
			OFFSET	0	112	-10
			CHANNELS 3  Xrotation Yrotation Zrotation
			JOINT spine_3
			{
				OFFSET	0	206.5	19.3
				CHANNELS 3  Xrotation Yrotation Zrotation
				JOINT spine_4
				{
					OFFSET	0	110.4	14.6
					CHANNELS 3  Xrotation Yrotation Zrotation
					JOINT neck_1
					{
						OFFSET	0	71.8	-50.3
						CHANNELS 3  Xrotation Yrotation Zrotation
						JOINT neck_2
						{
							OFFSET	0	86.2	-25.8
							CHANNELS 3  Xrotation Yrotation Zrotation
							JOINT head_ee
							{
								OFFSET	0	179.8	-8.7
								CHANNELS 3  Xrotation Yrotation Zrotation
								End Site
								{
									OFFSET	1	0	0
								}
							}
						}
					}
					JOINT left_clavicle
					{
						OFFSET	-43.2	22.4	-70.8
						CHANNELS 3  Xrotation Yrotation Zrotation
						JOINT left_shoulder
						{
							OFFSET	-93.9	-5.79999	48.7
							CHANNELS 3  Xrotation Yrotation Zrotation
							JOINT left_elbow
							{
								OFFSET	-291.4	-30.8	15.2
								CHANNELS 3  Xrotation Yrotation Zrotation
								JOINT left_lowarm_twist
								{
									OFFSET	-110.7	-3.89999	13.6
									CHANNELS 3  Xrotation Yrotation Zrotation
									JOINT left_hand
									{
										OFFSET	-110.7	-3.89999	13.6
										CHANNELS 3  Xrotation Yrotation Zrotation
										JOINT left_ee
										{
											OFFSET	-80.8	-5.10001	12.1
											CHANNELS 3  Xrotation Yrotation Zrotation
											End Site
											{
												OFFSET	1	0	0
											}
										}
									}
								}
							}
						}
					}
					JOINT right_clavicle
					{
						OFFSET	43.2	22.4	-70.8
						CHANNELS 3  Xrotation Yrotation Zrotation
						JOINT right_shoulder
						{
							OFFSET	93.9	-5.79999	48.7
							CHANNELS 3  Xrotation Yrotation Zrotation
							JOINT right_elbow
							{
								OFFSET	291.4	-30.8	15.2
								CHANNELS 3  Xrotation Yrotation Zrotation
								JOINT right_lowarm_twist
								{
									OFFSET	110.7	-3.89999	13.6
									CHANNELS 3  Xrotation Yrotation Zrotation
									JOINT right_hand
									{
										OFFSET	110.7	-3.89999	13.6
										CHANNELS 3  Xrotation Yrotation Zrotation
										JOINT right_ee
										{
											OFFSET	80.8	-5.10001	12.1
											CHANNELS 3  Xrotation Yrotation Zrotation
											End Site
											{
												OFFSET	1	0	0
											}
										}
									}
								}
							}
						}
					}
				}
			}
		}
	}
	JOINT left_hip
	{
		OFFSET	-82.8	-127.5	0.300001
		CHANNELS 3  Xrotation Yrotation Zrotation
		JOINT left_knee
		{
			OFFSET	-28.2	-396.7	2.2
			CHANNELS 3  Xrotation Yrotation Zrotation
			JOINT left_ankle
			{
				OFFSET	-11.7	-411.3	35.4
				CHANNELS 3  Xrotation Yrotation Zrotation
				JOINT left_toes
				{
					OFFSET	0	-60	-88.6
					CHANNELS 3  Xrotation Yrotation Zrotation
					JOINT left_foot_ee
					{
						OFFSET	-22.5	-16.5	-42.2
						CHANNELS 3  Xrotation Yrotation Zrotation
						End Site
						{
							OFFSET	1	0	0
						}
					}
				}
			}
		}
	}
	JOINT right_hip
	{
		OFFSET	82.8	-127.5	0.300001
		CHANNELS 3  Xrotation Yrotation Zrotation
		JOINT right_knee
		{
			OFFSET	28.2	-396.7	2.2
			CHANNELS 3  Xrotation Yrotation Zrotation
			JOINT right_ankle
			{
				OFFSET	11.7	-411.3	35.4
				CHANNELS 3  Xrotation Yrotation Zrotation
				JOINT right_toes
				{
					OFFSET	0	-60	-88.6
					CHANNELS 3  Xrotation Yrotation Zrotation
					JOINT right_foot_ee
					{
						OFFSET	22.5	-16.5	-42.2
						CHANNELS 3  Xrotation Yrotation Zrotation
						End Site
						{
							OFFSET	1	0	0
						}
					}
				}
			}
		}
	}
}
MOTION
Frames: 6
Frame Time: 0.02
2414.1 702.825 -930.451 -0.961935 61.6052 3.78329 -2.03653 -0.0213001 0.349487 -2.03646 -0.0434956 0.347424 -2.03668 -0.127219 0.326206 -2.03682 -0.0741049 0.342204 -3.41818 10.1889 2.90795 -3.31231 16.3353 4.53527 -0.0 0.0 -0.0 4.25935 -9.50666 7.67734 -25.9904 -7.57853 70.0312 0.612525 -16.8793 0.0908839 10.5301 0.250326 -1.31995 3.23525 4.63775 23.9675 -0.0 0.0 -0.0 10.6511 6.97907 -21.2568 6.48871 26.6974 -50.8443 1.96535 44.2282 -0.798675 28.7268 -0.103949 3.62996 0.844485 12.1795 -0.514176 0.0 0.0 0.0 29.3622 -40.3243 0.14265 -11.729 0.302501 1.77144 6.03729 28.4222 -0.926724 -37.9746 0.0 0.0 -0.0 0.0 -0.0 -13.765 11.0758 -5.15878 -19.8229 -0.297704 -3.01226 39.9878 -2.49942 4.86121 -25.4011 0.0 0.0 0.0 0.0 0.0 
2380.54 702.336 -933.771 0.784447 60.7891 2.46551 -2.13906 -0.0856649 0.106268 -2.13906 -0.0922534 0.100602 -2.13923 -0.114207 0.0747538 -2.13922 -0.100968 0.0918525 -2.9425 10.6349 3.00017 -2.81512 17.0052 4.64073 -0.0 0.0 -0.0 4.54239 -11.0562 8.16094 -24.5464 -7.78284 70.034 0.62769 -17.2726 0.095337 10.9274 0.254991 -1.37049 3.25718 4.86956 24.2118 -0.0 0.0 -0.0 10.0525 6.79032 -19.9566 4.6477 25.7659 -51.7586 1.9141 43.472 -0.763165 27.4652 -0.137718 3.47234 0.953795 12.4073 -1.15216 0.0 0.0 0.0 28.109 -40.2885 0.548365 -14.0935 0.319231 2.13383 6.04252 28.4616 -0.927751 -37.0558 0.0 0.0 -0.0 0.0 -0.0 -14.0638 13.7689 -4.35821 -22.9873 -0.248213 -3.49524 39.4275 -3.08894 4.81067 -24.1497 0.0 0.0 0.0 0.0 0.0 
2348.65 702.719 -935.099 1.90913 60.2265 1.79036 -2.16224 -0.139476 -0.157062 -2.16224 -0.129199 -0.165619 -2.16184 -0.0843069 -0.192391 -2.16187 -0.113633 -0.176662 -2.42962 10.665 2.89174 -2.28876 17.0634 4.47292 -0.0 0.0 -0.0 4.82165 -12.0228 8.68076 -22.4248 -8.23216 70.1799 0.620959 -17.0983 0.0933483 11.3932 0.260014 -1.42977 3.227 5.2836 24.1441 -0.0 0.0 -0.0 9.57657 6.33486 -18.9317 3.42046 24.5373 -52.5697 1.81559 41.9639 -0.696335 26.2042 -0.167992 3.31412 0.864085 12.4132 -0.545274 0.0 0.0 0.0 27.6896 -39.8167 1.533 -16.8071 0.319987 2.55013 5.64179 29.8996 -0.875549 -36.2895 0.0 0.0 -0.0 0.0 -0.0 -14.8339 15.611 -4.19072 -23.8573 -0.229938 -3.62749 40.0914 -2.42973 4.87039 -23.5219 0.0 0.0 0.0 0.0 0.0 
2314.26 706.169 -941.764 3.52583 59.5023 0.182278 -2.37666 -0.181204 -0.066953 -2.37668 -0.176576 -0.0783478 -2.37644 -0.151316 -0.120087 -2.37642 -0.168383 -0.0946824 -2.67288 11.2137 4.69991 -2.51959 16.6838 6.45715 -0.0 0.0 -0.0 5.0703 -12.3265 9.18432 -20.5759 -8.4937 70.2452 0.57625 -15.9319 0.0806384 11.1186 0.257111 -1.39481 2.58347 7.39518 20.327 -0.0 0.0 -0.0 9.0911 5.81889 -17.897 1.73719 23.4604 -54.2475 1.71732 40.3846 -0.631628 25.1259 -0.191113 3.17831 0.719182 11.0988 -0.134783 0.0 0.0 0.0 27.8682 -39.1771 3.62782 -22.5784 0.256108 3.433 7.94779 29.6909 -1.22393 -33.8165 0.0 0.0 -0.0 0.0 -0.0 -14.0052 18.6072 -4.49965 -25.4578 -0.191077 -3.87003 38.3318 -2.24421 4.71654 -22.9748 0.0 0.0 0.0 0.0 0.0 
2284.18 708.638 -953.426 4.60468 60.0058 -0.666475 -2.25407 -0.109131 -0.0833017 -2.25408 -0.103609 -0.0900772 -2.25391 -0.0779794 -0.112995 -2.25391 -0.0948463 -0.0992619 -1.54281 12.0105 6.85472 -1.32201 16.1802 8.70928 -0.0 0.0 -0.0 5.19883 -11.7524 9.49324 -18.293 -8.75057 68.4657 0.569166 -15.7459 0.0787049 11.6839 0.262904 -1.46679 2.16898 6.68498 17.2065 -0.0 0.0 -0.0 8.86879 5.88954 -17.4268 -0.385406 22.864 -55.3147 1.45832 35.8424 -0.471642 22.6959 -0.233817 2.87086 0.482257 7.88146 0.0894293 0.0 0.0 0.0 27.3557 -38.6841 5.53675 -27.1463 0.142746 4.12465 13.3233 28.6133 -2.0032 -33.0798 0.0 0.0 -0.0 0.0 -0.0 -13.4954 19.5355 -5.43473 -28.4854 -0.0990906 -4.32552 38.2468 -2.89074 4.7065 -22.7891 0.0 0.0 0.0 0.0 0.0 
2254.58 716.659 -967.555 5.87261 60.4452 -1.9716 -2.6321 -0.220861 -0.134884 -2.63212 -0.21183 -0.148665 -2.63156 -0.166951 -0.197739 -2.63156 -0.196085 -0.16889 -0.952394 12.5137 5.33806 -0.718948 18.183 7.1117 -0.0 0.0 -0.0 5.49084 -13.087 10.0239 -16.0557 -8.8582 66.9386 0.591442 -16.3298 0.0848591 11.4868 0.260965 -1.44169 2.59198 6.05396 19.9055 -0.0 0.0 -0.0 8.36581 5.24075 -16.3712 -1.4287 22.1488 -58.2125 1.31437 33.0665 -0.390178 22.6028 -0.235192 2.85906 0.866604 10.3227 -1.46278 0.0 0.0 0.0 24.9522 -38.4947 6.45751 -27.145 0.142786 4.12446 9.76994 29.1427 -1.49095 -33.0338 0.0 0.0 -0.0 0.0 -0.0 -13.2401 19.8316 -5.97503 -28.9102 -0.084264 -4.38902 39.0879 -2.45174 4.78296 -22.0774 0.0 0.0 0.0 0.0 0.0 
